# xmcd
#
# Track frame offsets:
#	150
#	15763
#	33090
#	51157
#	75391
#	87119
#	100501
#	112707
#	129058
#	145015
#	154715
#	170191
#	183157
#	199102
#	210760
#	228152
#	238630
#	252134
#	266448
#	280172
#
# Disc length: 3982 seconds
#
# Revision: 0
# Processed by: cddbd v1.5.2PL0 Copyright (c) Steve Scherf et al.
# Submitted via: audiograbber 1.83.01
#
DISCID=e00f8c14
DTITLE=Dolly Parton and Linda Ronstadt and Emmylou Harris - The Complete Trio Colle
DTITLE=ction [CD 3) - Trio Unreleased
DYEAR=2016
DGENRE=Country
TTITLE0=Wildflowers (Alternate Take 1986)
TTITLE1=Waltz Across Texas Tonight (Unreleased 1994)
TTITLE2=Lover's Return (Linda Solo - Unreleased 1994)
TTITLE3=Softly And Tenderly (Unreleased 1994)
TTITLE4=Pleasant As May (Unreleased 1986)
TTITLE5=My Dear Companion (Alternate Take 1986)
TTITLE6=My Blue Tears (Unreleased 1998)
TTITLE7=Making Plans (Alternate Take 1986)
TTITLE8=I've Had Enough (Alternate Mix 1986)
TTITLE9=Grey Funnel Line (Unreleased 1986)
TTITLE10=You Don't Knock (Unreleased 1986)
TTITLE11=Where Will The Words Come From (Unreleased 1985)
TTITLE12=Do I Ever Cross Your Mind (Dolly Lead - Alternate Take 1994)
TTITLE13=Are You Tired Of Me (Unreleased 1986)
TTITLE14=Even Cowgirls Get The Blues
TTITLE15=Mr. Sandman
TTITLE16=Handful Of Dust (Unreleased 1993)
TTITLE17=Calling My Children Home (Unreleased Acapella Version 1986)
TTITLE18=In A Deep Sleep (Unreleased 1986)
TTITLE19=Farther Along (Alternate Mix 1986)
EXTD=
EXTT0=
EXTT1=
EXTT2=
EXTT3=
EXTT4=
EXTT5=
EXTT6=
EXTT7=
EXTT8=
EXTT9=
EXTT10=
EXTT11=
EXTT12=
EXTT13=
EXTT14=
EXTT15=
EXTT16=
EXTT17=
EXTT18=
EXTT19=
PLAYORDER=
